# xmcd
#
# Track frame offsets:
#	150
#	12411
#	23736
#	34865
#	45142
#	59120
#	70476
#	87548
#	98728
#	120624
#	134512
#	148946
#	158934
#	172220
#	187362
#	200560
#	211705
#	230733
#	243539
#	254947
#	267982
#	286108
#
# Disc length: 4016 seconds
#
# Revision: 0
# Processed by: cddbd v1.5.2PL0 Copyright (c) Steve Scherf et al.
# Submitted via: dBpowerAMP V4.0
#
DISCID=600fae16
DTITLE=Bill Anderson - More Greatest Hits
DYEAR=2002
DGENRE=Country
TTITLE0=But You Know I Love You
TTITLE1=All The Lonely Women In The World
TTITLE2=Walk Out Backwards
TTITLE3=Always Remember
TTITLE4=Candy Apple Red
TTITLE5=Head To Toe
TTITLE6=This Is A Love Song
TTITLE7=Ninety-Nine
TTITLE8=Big Railroad Man
TTITLE9=Dissatisfied
TTITLE10=Peanuts and Diamonds
TTITLE11=Every Time I Turn The Radio On
TTITLE12=City Lights
TTITLE13=Country D.J.
TTITLE14=Proof
TTITLE15=Happy State Of Mind
TTITLE16=Rock 'N Roll To Rock of Ages
TTITLE17=That's What Made Me Love You
TTITLE18=On and On and On
TTITLE19=Get A Little Dirt On Your Hands
TTITLE20=Where Have All Our Heroes Gone
TTITLE21=Still The One
EXTD=
EXTT0=
EXTT1=
EXTT2=
EXTT3=
EXTT4=
EXTT5=
EXTT6=
EXTT7=
EXTT8=
EXTT9=
EXTT10=
EXTT11=
EXTT12=
EXTT13=
EXTT14=
EXTT15=
EXTT16=
EXTT17=
EXTT18=
EXTT19=
EXTT20=
EXTT21=
PLAYORDER=
